<?xml version="1.0" standalone="no"?>
<!DOCTYPE svg PUBLIC "-//W3C//DTD SVG 20010904//EN"
 "http://www.w3.org/TR/2001/REC-SVG-20010904/DTD/svg10.dtd">
<svg version="1.0" xmlns="http://www.w3.org/2000/svg"
 width="216.000000pt" height="233.000000pt" viewBox="0 0 216.000000 233.000000"
 preserveAspectRatio="xMidYMid meet">

<g transform="translate(0.000000,233.000000) scale(0.100000,-0.100000)"
fill="#000000" stroke="none">
<path d="M471 2013 c-61 -22 -133 -96 -154 -158 -15 -43 -17 -111 -16 -609 0
-403 4 -570 12 -593 25 -66 73 -119 137 -152 l63 -31 567 0 567 0 62 31 c70
35 122 96 141 164 7 28 10 216 8 605 l-3 565 -23 45 c-32 60 -63 92 -120 121
l-47 24 -575 2 c-502 1 -581 0 -619 -14z m655 -383 c29 -22 59 -40 67 -40 7 0
41 10 76 21 54 19 65 20 77 7 12 -12 11 -24 -10 -86 l-25 -73 46 -60 c63 -81
56 -95 -48 -91 l-74 3 -40 -56 c-69 -97 -78 -96 -114 16 l-22 66 -62 17 c-107
30 -112 48 -27 106 l60 41 0 69 c0 115 13 123 96 60z m436 -2 c12 2 16 -1 12
-11 -3 -8 2 -17 13 -21 17 -7 17 -8 0 -21 -12 -8 -14 -15 -8 -20 17 -10 13
-28 -4 -21 -10 4 -15 -1 -15 -14 0 -24 -18 -27 -26 -5 -6 14 -8 13 -19 -1 -8
-12 -14 -14 -19 -6 -4 7 -4 17 -1 22 10 16 -12 11 -30 -6 -9 -10 -13 -20 -8
-23 15 -10 13 -51 -3 -51 -8 0 -14 -4 -14 -8 0 -4 -9 -8 -20 -8 -11 0 -20 4
-20 8 0 4 -6 8 -14 8 -8 0 -13 10 -13 25 0 14 3 25 8 25 5 0 5 8 2 17 -5 12
-2 15 10 10 8 -3 18 -1 21 6 3 9 7 9 14 -1 8 -11 14 -10 30 9 20 21 20 23 4
35 -16 12 -16 13 1 20 11 4 16 13 12 21 -4 11 0 14 14 10 12 -3 22 1 26 12 6
14 8 14 18 1 7 -9 20 -14 29 -12z m-131 2 c15 -9 17 -15 9 -30 -19 -35 -67
-18 -55 19 7 24 17 26 46 11z m-395 -308 c34 -23 19 -42 -207 -268 -197 -197
-232 -227 -247 -218 -40 26 -27 44 199 270 123 123 228 224 234 224 5 0 15 -4
21 -8z"/>
<path d="M1276 1473 c-4 -9 -3 -20 1 -24 4 -4 9 3 9 17 2 28 -1 31 -10 7z"/>
<path d="M635 910 c-21 -22 -36 -42 -34 -45 3 -2 25 16 49 40 24 25 40 45 34
45 -5 0 -27 -18 -49 -40z"/>
</g>
</svg>
